<svg xmlns="http://www.w3.org/2000/svg" version="1.1" xmlns:xlink="http://www.w3.org/1999/xlink" xmlns:svgjs="http://svgjs.dev/svgjs" width="1000" height="1000"><g clip-path="url(#SvgjsClipPath1153)"><rect width="1000" height="1000" fill="#000000"></rect><g transform="matrix(8.75,0,0,8.75,185,150)"><svg xmlns="http://www.w3.org/2000/svg" version="1.1" xmlns:xlink="http://www.w3.org/1999/xlink" xmlns:svgjs="http://svgjs.dev/svgjs" width="72" height="80"><svg width="72" height="80" viewBox="0 0 72 80" fill="none" xmlns="http://www.w3.org/2000/svg">
<g clip-path="url(#clip0_222_1031)">
<path d="M71.1629 55.9255V18.697L38.8982 0.082732V14.395L51.5559 21.6753C52.0523 21.9235 52.0523 22.668 51.5559 22.9162L36.499 31.6029C36.0854 31.8511 35.5063 31.8511 35.0926 31.6029L20.0357 22.8335C19.5394 22.5853 19.5394 21.8407 20.0357 21.5925L32.6934 14.3123V0L0.428711 18.6143V55.9255V55.7601V55.9255L12.8382 48.8107V34.1675C12.8382 33.6711 13.4173 33.2575 13.9137 33.5884L28.9706 42.2751C29.3842 42.5233 29.7152 43.0196 29.7152 43.516V60.8893C29.7152 61.3857 29.1361 61.7994 28.6397 61.4684L15.982 54.1882L3.57245 61.303L35.8372 79.9173L68.1019 61.303L55.6924 54.1882L43.0347 61.4684C42.6211 61.7166 41.9592 61.3857 41.9592 60.8893V43.516C41.9592 43.0196 42.2074 42.5233 42.7038 42.2751L57.7607 33.5884C58.1743 33.3402 58.8362 33.6711 58.8362 34.1675V48.8107L71.1629 55.9255Z" fill="white"></path>
<path d="M35.7544 80L68.0191 61.3857L55.6096 54.271L42.9519 61.5512C42.5383 61.7994 41.8764 61.4685 41.8764 60.9721V43.5988C41.8764 43.1024 42.1246 42.606 42.621 42.3578L57.6779 33.6712C58.0915 33.423 58.7534 33.7539 58.7534 34.2503V48.8935L71.1629 56.0083V18.697L35.7544 39.1314V80Z" fill="white"></path>
<path d="M38.8155 0V14.3123L51.4732 21.5925C51.9696 21.8407 51.9696 22.5853 51.4732 22.8335L36.4163 31.5202C36.0026 31.7683 35.4235 31.7683 35.0099 31.5202L20.0357 22.8335C19.5394 22.5853 19.5394 21.8407 20.0357 21.5925L32.6934 14.3123V0L0.428711 18.6143L35.8372 39.0486L71.2457 18.6143L38.8155 0Z" fill="white"></path>
<path d="M28.4742 61.4685L15.8165 54.1882L3.40696 61.303L35.6717 79.9173V39.0486L0.345947 18.697V56.0083V55.8428V56.0083L12.7555 48.8935V34.2503C12.7555 33.7539 13.3346 33.3403 13.831 33.6712L28.8878 42.3578C29.3015 42.606 29.6324 43.1024 29.6324 43.5988V60.9721C29.5497 61.3857 28.9706 61.7167 28.4742 61.4685Z" fill="white"></path>
</g>
<defs>
<clipPath id="clip0_222_1031">
<rect width="70.8997" height="80" fill="white" transform="translate(0.345947)"></rect>
</clipPath>
<clipPath id="SvgjsClipPath1153"><rect width="1000" height="1000" x="0" y="0" rx="0" ry="0"></rect></clipPath></defs>
</svg></svg></g></g></svg>